<mxfile host="app.diagrams.net" agent="Mozilla/5.0 (Windows NT 10.0; Win64; x64) AppleWebKit/537.36 (KHTML, like Gecko) Chrome/131.0.0.0 Safari/537.36" version="24.9.1">
  <diagram name="Page-1" id="8bfirz3oWDYka6PuBPYK">
    <mxGraphModel dx="1461" dy="725" grid="1" gridSize="10" guides="1" tooltips="1" connect="1" arrows="1" fold="1" page="1" pageScale="1" pageWidth="850" pageHeight="1100" math="0" shadow="0">
      <root>
        <mxCell id="0" />
        <mxCell id="1" parent="0" />
        <mxCell id="c5VY2Wb4ZyjpvdkWRZNB-8" style="edgeStyle=orthogonalEdgeStyle;rounded=0;orthogonalLoop=1;jettySize=auto;html=1;exitX=1;exitY=0.5;exitDx=0;exitDy=0;entryX=0;entryY=0.75;entryDx=0;entryDy=0;" parent="1" source="c5VY2Wb4ZyjpvdkWRZNB-1" target="c5VY2Wb4ZyjpvdkWRZNB-5" edge="1">
          <mxGeometry relative="1" as="geometry">
            <Array as="points">
              <mxPoint x="150" y="80" />
              <mxPoint x="150" y="155" />
            </Array>
          </mxGeometry>
        </mxCell>
        <mxCell id="c5VY2Wb4ZyjpvdkWRZNB-1" value="Original image&lt;br&gt;(reference image)" style="shape=parallelogram;perimeter=parallelogramPerimeter;whiteSpace=wrap;html=1;fixedSize=1;" parent="1" vertex="1">
          <mxGeometry x="30" y="60" width="120" height="40" as="geometry" />
        </mxCell>
        <mxCell id="c5VY2Wb4ZyjpvdkWRZNB-7" style="edgeStyle=orthogonalEdgeStyle;rounded=0;orthogonalLoop=1;jettySize=auto;html=1;exitX=1;exitY=0.5;exitDx=0;exitDy=0;entryX=0;entryY=0.25;entryDx=0;entryDy=0;" parent="1" source="c5VY2Wb4ZyjpvdkWRZNB-2" target="c5VY2Wb4ZyjpvdkWRZNB-5" edge="1">
          <mxGeometry relative="1" as="geometry">
            <Array as="points">
              <mxPoint x="160" y="30" />
              <mxPoint x="160" y="125" />
            </Array>
          </mxGeometry>
        </mxCell>
        <mxCell id="c5VY2Wb4ZyjpvdkWRZNB-2" value="Enhanced image" style="shape=parallelogram;perimeter=parallelogramPerimeter;whiteSpace=wrap;html=1;fixedSize=1;" parent="1" vertex="1">
          <mxGeometry x="30" y="10" width="120" height="40" as="geometry" />
        </mxCell>
        <mxCell id="c5VY2Wb4ZyjpvdkWRZNB-6" style="edgeStyle=orthogonalEdgeStyle;rounded=0;orthogonalLoop=1;jettySize=auto;html=1;exitX=1;exitY=0.5;exitDx=0;exitDy=0;entryX=0;entryY=0.5;entryDx=0;entryDy=0;" parent="1" source="c5VY2Wb4ZyjpvdkWRZNB-3" target="c5VY2Wb4ZyjpvdkWRZNB-5" edge="1">
          <mxGeometry relative="1" as="geometry" />
        </mxCell>
        <mxCell id="c5VY2Wb4ZyjpvdkWRZNB-3" value="&lt;b&gt;&lt;font style=&quot;font-size: 16px;&quot;&gt;Start&lt;/font&gt;&lt;/b&gt;" style="rounded=1;whiteSpace=wrap;html=1;" parent="1" vertex="1">
          <mxGeometry x="70" y="120" width="60" height="40" as="geometry" />
        </mxCell>
        <mxCell id="c5VY2Wb4ZyjpvdkWRZNB-4" value="Print outputs" style="shape=parallelogram;perimeter=parallelogramPerimeter;whiteSpace=wrap;html=1;fixedSize=1;" parent="1" vertex="1">
          <mxGeometry x="330" y="120" width="120" height="40" as="geometry" />
        </mxCell>
        <mxCell id="c5VY2Wb4ZyjpvdkWRZNB-9" style="edgeStyle=orthogonalEdgeStyle;rounded=0;orthogonalLoop=1;jettySize=auto;html=1;exitX=1;exitY=0.5;exitDx=0;exitDy=0;entryX=0;entryY=0.5;entryDx=0;entryDy=0;" parent="1" source="c5VY2Wb4ZyjpvdkWRZNB-5" target="c5VY2Wb4ZyjpvdkWRZNB-4" edge="1">
          <mxGeometry relative="1" as="geometry" />
        </mxCell>
        <mxCell id="c5VY2Wb4ZyjpvdkWRZNB-5" value="Run the PSNR function from OpenCV on images" style="rounded=0;whiteSpace=wrap;html=1;" parent="1" vertex="1">
          <mxGeometry x="180" y="110" width="120" height="60" as="geometry" />
        </mxCell>
      </root>
    </mxGraphModel>
  </diagram>
</mxfile>
